<svg width="28" height="62" viewBox="0 0 28 62" fill="none" xmlns="http://www.w3.org/2000/svg">
<path d="M0.350464 60.356L0.350464 61.125L27.5271 61.125L27.5271 60.356L0.350464 60.356Z" fill="white" fill-opacity="0.5"/>
<path d="M0.350464 57.2801L0.350464 58.0491L27.5271 58.0491L27.5271 57.2801L0.350464 57.2801Z" fill="white" fill-opacity="0.5"/>
<path d="M0.350464 54.2043L0.350464 56.5112L27.5271 56.5112L27.5271 54.2043L0.350464 54.2043Z" fill="white" fill-opacity="0.5"/>
<path d="M0.350464 51.1283L0.350464 53.4353L27.5271 53.4353L27.5271 51.1283L0.350464 51.1283Z" fill="white" fill-opacity="0.5"/>
<path d="M0.350464 49.5904L0.350464 50.3594L27.5271 50.3594L27.5271 49.5904L0.350464 49.5904Z" fill="white" fill-opacity="0.5"/>
<path d="M0.350464 48.0523L0.350464 48.8213L27.5271 48.8213L27.5271 48.0523L0.350464 48.0523Z" fill="white" fill-opacity="0.5"/>
<path d="M0.350464 44.9762L0.350464 47.2832L27.5271 47.2832L27.5271 44.9762L0.350464 44.9762Z" fill="white" fill-opacity="0.5"/>
<path d="M0.350464 43.4383L0.350464 44.2073L27.5271 44.2073L27.5271 43.4383L0.350464 43.4383Z" fill="white" fill-opacity="0.5"/>
<path d="M0.350464 40.3622L0.350464 42.6692L27.5271 42.6692L27.5271 40.3622L0.350464 40.3622Z" fill="white" fill-opacity="0.5"/>
<path d="M0.350464 37.2864L0.350464 38.0554L27.5271 38.0554L27.5271 37.2864L0.350464 37.2864Z" fill="white" fill-opacity="0.5"/>
<path d="M0.350464 34.2104L0.350464 36.5173L27.5271 36.5173L27.5271 34.2104L0.350464 34.2104Z" fill="white" fill-opacity="0.5"/>
<path d="M0.350464 31.1346L0.350464 31.9036L27.5271 31.9036L27.5271 31.1346L0.350464 31.1346Z" fill="white" fill-opacity="0.5"/>
<path d="M0.350464 29.5965L0.350464 30.3655L27.5271 30.3655L27.5271 29.5965L0.350464 29.5965Z" fill="white" fill-opacity="0.5"/>
<path d="M0.350464 28.0586L0.350464 28.8276L27.5271 28.8276L27.5271 28.0586L0.350464 28.0586Z" fill="white" fill-opacity="0.5"/>
<path d="M0.350464 24.9826L0.350464 27.2896L27.5271 27.2895L27.5271 24.9826L0.350464 24.9826Z" fill="white" fill-opacity="0.5"/>
<path d="M0.350464 23.4446L0.350464 24.2136L27.5271 24.2136L27.5271 23.4446L0.350464 23.4446Z" fill="white" fill-opacity="0.5"/>
<path d="M0.350464 21.9068L0.350464 22.6758L27.5271 22.6758L27.5271 21.9068L0.350464 21.9068Z" fill="white" fill-opacity="0.5"/>
<path d="M0.350464 18.8307L0.350464 21.1377L27.5271 21.1377L27.5271 18.8307L0.350464 18.8307Z" fill="white" fill-opacity="0.5"/>
<path d="M0.350464 17.2928L0.350464 18.0618L27.5271 18.0618L27.5271 17.2928L0.350464 17.2928Z" fill="white" fill-opacity="0.5"/>
<path d="M0.350464 12.6789L0.350464 14.9858L27.5271 14.9858L27.5271 12.6789L0.350464 12.6789Z" fill="white" fill-opacity="0.5"/>
<path d="M0.350464 11.1407L0.350464 11.9097L27.5271 11.9097L27.5271 11.1407L0.350464 11.1407Z" fill="white" fill-opacity="0.5"/>
<path d="M0.350464 8.06475L0.350464 8.83374L27.5271 8.83374L27.5271 8.06475L0.350464 8.06475Z" fill="white" fill-opacity="0.5"/>
<path d="M0.350464 4.98894L0.350464 7.2959L27.5271 7.2959L27.5271 4.98894L0.350464 4.98894Z" fill="white" fill-opacity="0.5"/>
<path d="M0.350464 1.91301L0.350464 4.21997L27.5271 4.21997L27.5271 1.91301L0.350464 1.91301Z" fill="white" fill-opacity="0.5"/>
<path d="M0.350464 0.375056L0.350464 1.14404L27.5271 1.14404L27.5271 0.375055L0.350464 0.375056Z" fill="white" fill-opacity="0.5"/>
</svg>
